<mxfile host="app.diagrams.net" modified="2021-09-27T02:51:30.595Z" agent="5.0 (Macintosh; Intel Mac OS X 10_15_7) AppleWebKit/537.36 (KHTML, like Gecko) Chrome/86.0.4240.193 Safari/537.36" etag="q5vPv-VW7AKvcsM9U58Y" version="15.3.3" type="github">
  <diagram id="8beFvH9SGnWX1s6DPaSN" name="Page-1">
    <mxGraphModel dx="946" dy="536" grid="1" gridSize="10" guides="1" tooltips="1" connect="1" arrows="1" fold="1" page="1" pageScale="1" pageWidth="827" pageHeight="1169" math="0" shadow="0">
      <root>
        <mxCell id="0" />
        <mxCell id="1" parent="0" />
        <mxCell id="A-o_fQe8TbJ1cDU8Zv3a-1" value="" style="ellipse;whiteSpace=wrap;html=1;aspect=fixed;hachureGap=4;pointerEvents=0;fillColor=#ffe6cc;strokeColor=#d79b00;" parent="1" vertex="1">
          <mxGeometry x="220" y="160" width="220" height="220" as="geometry" />
        </mxCell>
        <mxCell id="A-o_fQe8TbJ1cDU8Zv3a-2" value="@Before" style="rounded=0;whiteSpace=wrap;html=1;hachureGap=4;pointerEvents=0;fillColor=#fff2cc;strokeColor=#d6b656;" parent="1" vertex="1">
          <mxGeometry x="265" y="230" width="125" height="40" as="geometry" />
        </mxCell>
        <mxCell id="A-o_fQe8TbJ1cDU8Zv3a-3" value="Method" style="rounded=0;whiteSpace=wrap;html=1;hachureGap=4;pointerEvents=0;fillColor=#dae8fc;strokeColor=#6c8ebf;" parent="1" vertex="1">
          <mxGeometry x="265" y="270" width="125" height="40" as="geometry" />
        </mxCell>
        <mxCell id="A-o_fQe8TbJ1cDU8Zv3a-4" value="Around" style="text;html=1;strokeColor=none;fillColor=none;align=center;verticalAlign=middle;whiteSpace=wrap;rounded=0;hachureGap=4;pointerEvents=0;" parent="1" vertex="1">
          <mxGeometry x="310" y="190" width="40" height="20" as="geometry" />
        </mxCell>
        <mxCell id="A-o_fQe8TbJ1cDU8Zv3a-6" value="@After" style="rounded=0;whiteSpace=wrap;html=1;hachureGap=4;pointerEvents=0;fillColor=#d5e8d4;strokeColor=#82b366;" parent="1" vertex="1">
          <mxGeometry x="267.5" y="400" width="125" height="40" as="geometry" />
        </mxCell>
        <mxCell id="A-o_fQe8TbJ1cDU8Zv3a-7" value="@AfterReturning/@AfterThrowing" style="rounded=0;whiteSpace=wrap;html=1;hachureGap=4;pointerEvents=0;fillColor=#e1d5e7;strokeColor=#9673a6;" parent="1" vertex="1">
          <mxGeometry x="230" y="460" width="200" height="40" as="geometry" />
        </mxCell>
        <mxCell id="CKKGUKLzR6hYVtkD30dH-1" value="" style="endArrow=classic;html=1;startSize=14;endSize=14;sourcePerimeterSpacing=8;targetPerimeterSpacing=8;dashed=1;" edge="1" parent="1">
          <mxGeometry width="50" height="50" relative="1" as="geometry">
            <mxPoint x="333" y="130" as="sourcePoint" />
            <mxPoint x="333" y="540" as="targetPoint" />
          </mxGeometry>
        </mxCell>
      </root>
    </mxGraphModel>
  </diagram>
</mxfile>
